<svg xmlns="http://www.w3.org/2000/svg" xmlns:xlink="http://www.w3.org/1999/xlink" width="20" height="19.999" viewBox="0 0 20 19.999"><defs><style>.a{fill:none;}.b{clip-path:url(#a);}.c{fill:#fff;}</style><clipPath id="a"><rect class="a" width="20" height="19.999"/></clipPath></defs><g class="b"><rect class="a" width="19.999" height="19.999" transform="translate(0)"/><g transform="translate(0 0)"><path class="c" d="M104.236,145.685l-8.236,7v7.552a.726.726,0,0,0,.715.737l5.006-.013a.726.726,0,0,0,.711-.737v-4.41a.726.726,0,0,1,.715-.737H106a.726.726,0,0,1,.715.737v4.407a.726.726,0,0,0,.712.74h0l5,.014a.726.726,0,0,0,.715-.737v-7.557l-8.234-6.992a.532.532,0,0,0-.683,0Z" transform="translate(-94.58 -141.927)"/><path class="c" d="M16.923,37.391V32.476a.421.421,0,0,0-.417-.426H14.563a.421.421,0,0,0-.417.426v2.577l-3.107-2.614a1.638,1.638,0,0,0-2.117,0l-8.786,7.4a.432.432,0,0,0-.056.6h0l.885,1.1a.41.41,0,0,0,.586.058h0l8.164-6.875a.416.416,0,0,1,.531,0l8.164,6.875A.41.41,0,0,0,19,41.537h0l.885-1.1a.432.432,0,0,0-.057-.6h0Z" transform="translate(0.015 -32.05)"/></g></g></svg>