<svg xmlns="http://www.w3.org/2000/svg" width="252.959" height="52" viewBox="0 0 252.959 52"><defs><style>.a{fill:#58ade1;}.b{fill:#fff;}</style></defs><g transform="translate(0 0)"><path class="a" d="M341.4,32.672c0-6.4-5.31-8.59-12.5-9.8-3.825-.633-6.736-.863-6.736-2.824,0-1.442,2-2.305,4.453-2.305a12.9,12.9,0,0,1,9.3,3.747l5.194-4.671a19.62,19.62,0,0,0-14.5-5.823c-7.02,0-12.843,3.23-12.843,9.858,0,6.746,5.364,8.879,12.558,9.858,3.711.519,6.507.924,6.507,3.113,0,1.556-1.77,2.537-4.909,2.537-3.594,0-7.706-1.326-9.989-4.67L312,35.669c3.142,5.13,8.791,7.494,15.41,7.494,8.619,0,13.986-4.093,13.986-10.492M300.987,11.687V29.214a5.688,5.688,0,0,1-5.936,6.111c-3.939,0-4.739-2.649-4.739-5.247V11.687H281.58V32.095c0,6.227,3.367,11.069,10.273,11.069a12.372,12.372,0,0,0,9.134-4.15v3.457h8.732V11.687ZM265.539,33.306c0,3.172.286,4.957,1.429,6.63,1.54,2.132,4.222,3.113,7.648,3.113a13.3,13.3,0,0,0,6.051-1.267l-1.427-6.346a5.919,5.919,0,0,1-2.683.635c-1.256,0-2.285-.463-2.285-2.594V1.31h-8.733Zm-26.426-6.223c0-4.67,2.4-8.475,7.135-8.475,4.682,0,6.849,3.862,6.849,8.475,0,4.554-2.168,8.474-6.849,8.474s-7.135-3.862-7.135-8.474m-8.733-15.4V52.5h8.733V39.014a12.156,12.156,0,0,0,9.361,4.15c8.564,0,13.87-6.917,13.87-16.084,0-9.052-5.307-16.085-13.87-16.085a12.022,12.022,0,0,0-9.361,4.208V11.687Z" transform="translate(-88.44 -0.503)"/><path class="b" d="M182.211,5.819c4.025-1.246,8.587-2.642,12.548-3.949,1.149-.379,1.443-.18,1.443.739v32.1c0,.746.068.911.55,1.175l3.419,1.877c.571.333.438.7.076.972-2,1.508-3.892,2.993-5.923,4.678-3.584-1.713-7.359-3.337-10.938-4.764-.584-.234-.583-.55-.164-.941l1.765-1.664V10.463c0-2.294-.8-3.317-2.841-3.829-.482-.123-.532-.633.066-.816" transform="translate(-69.78 -0.648)"/><path class="b" d="M160.576,6.159c.055-3.071,2.053-5.52,5.265-5.433,2.676.071,4.344,1.824,4.251,4.835-.119,3.777-4.338,6.314-6.631,6.172-1.4-.087-2.94-2.38-2.883-5.574" transform="translate(-61.643 -0.278)"/><path class="b" d="M164.961,41.567c0,.746.067.911.549,1.175l3.422,1.877c.577.316.437.7.075.972-2.007,1.508-3.893,2.993-5.925,4.678-3.583-1.713-7.357-3.337-10.938-4.764-.583-.234-.582-.55-.165-.941l1.765-1.664V28.259c0-.749-.066-.911-.549-1.176l-3.422-1.876c-.577-.317-.443-.71-.074-.973,1.937-1.378,4.27-3.111,6.2-4.678,3.523,1.725,6.967,3.261,10.665,4.764.582.237.582.55.165.942l-1.766,1.664Z" transform="translate(-57.345 -7.507)"/><path class="b" d="M114.281,43.63V28.259c0-.682-.05-.947-.551-1.176l-4.87-2.5a9.6,9.6,0,0,0-4.756,8.591c0,7.751,6.371,11.8,10.178,10.452m-.966,1.769c-1.937,1.408-4.385,3.357-6.161,4.874-4.328,0-11.583-3.409-11.583-11.26,0-9.837,10.21-16.737,20.589-19.455,3.584,1.714,7.358,3.339,10.937,4.767.584.23.582.547.164.939L125.5,26.927V41.567c0,.749.068.911.551,1.177l3.422,1.875c.577.316.436.7.073.972-2.005,1.508-3.892,2.992-5.923,4.679-3.067-1.467-6.991-3.442-10.3-4.874" transform="translate(-36.689 -7.508)"/><path class="b" d="M35.441,26.23v7.83c0,.747.053.936.55,1.175l.763.362V26.219Zm0-19.136V18.223h1.314V6.716a1.848,1.848,0,0,0-.518-.118.8.8,0,0,0-.8.5M18.072,35.658V6.716a1.863,1.863,0,0,0-.526-.123.8.8,0,0,0-.8.5V34.06c0,.747.068.909.551,1.175Zm.633-9.427v9.774l2.017,1.1c.569.333.437.7.074.975-2.006,1.5-3.891,2.99-5.923,4.676C11.4,41.228,6.858,39.329,3.38,38c-.584-.234-.632-.607-.168-.941l2.322-1.664V10.211c0-.747-.066-.91-.55-1.175L.39,6.536c-.579-.315-.436-.7-.074-.973C2.323,4.058,5.382,1.687,7.412,0c3.389,1.733,6.665,3.273,9.8,4.58A89.37,89.37,0,0,0,24.975,0c3.184,1.906,6.769,3.82,9.722,5.237C37.452,3.668,40.427,1.91,43.262,0c3.556,2.056,8.082,4.338,11.387,5.825.574.258.582.551.165.941l-.678.6V30.675c0,3.559.623,4.946,2.516,5.663.493.185.48.591.132.847-2.02,1.479-5.067,3.742-7.476,5.576-5.3-1.16-6.388-3.827-6.388-10V10.84c0-.747-.083-.88-.547-1.176a45.61,45.61,0,0,0-4.984-2.7V18.223H42.22l-4.832,7.916V35.9l2.545,1.21c.6.283.447.714.075.975-2,1.394-4.2,2.983-6.445,4.676C29.979,41.049,26.207,39.423,22.626,38c-.583-.234-.583-.55-.166-.941l1.766-1.664V26.23Zm0-19.265V24.5l3.925-6.275h1.6V10.84c0-.747-.082-.88-.548-1.176a45.468,45.468,0,0,0-4.973-2.7" transform="translate(0)"/></g></svg>